<?xml version="1.0" encoding="utf-8"?>
<!-- Generator: Adobe Illustrator 16.0.0, SVG Export Plug-In . SVG Version: 6.00 Build 0)  -->
<!DOCTYPE svg PUBLIC "-//W3C//DTD SVG 1.1//EN" "http://www.w3.org/Graphics/SVG/1.1/DTD/svg11.dtd">
<svg version="1.1" id="圖層_1" xmlns="http://www.w3.org/2000/svg" xmlns:xlink="http://www.w3.org/1999/xlink" x="0px" y="0px"
	 width="30px" height="18.021px" viewBox="0 5.99 30 18.021" enable-background="new 0 5.99 30 18.021" xml:space="preserve">
<g>
	<path fill="#999999" d="M0,20.989v-12h4.5v10.5c0,0.406-0.148,0.758-0.445,1.055S3.406,20.989,3,20.989H0z M2.25,17.989
		c-0.219,0-0.398,0.07-0.539,0.211S1.5,18.521,1.5,18.739s0.07,0.398,0.211,0.539s0.32,0.211,0.539,0.211s0.398-0.07,0.539-0.211
		S3,18.958,3,18.739S2.93,18.341,2.789,18.2S2.469,17.989,2.25,17.989z M22.687,18.88c0.313,0.25,0.493,0.578,0.54,0.984
		s-0.07,0.781-0.353,1.125l-0.422,0.516c-0.25,0.344-0.586,0.539-1.008,0.586s-0.789-0.07-1.102-0.352l-0.234-0.188l-1.5,1.781
		c-0.281,0.375-0.664,0.594-1.148,0.656s-0.914-0.063-1.289-0.375l-0.844-0.75c-0.531,0.656-1.211,1.031-2.039,1.125
		s-1.555-0.125-2.18-0.656l-4.265-3.844H6V8.99l2.577-2.578C8.858,6.13,9.202,5.99,9.608,5.99h3.938L9.702,9.505
		c-0.688,0.625-1.047,1.406-1.078,2.344s0.266,1.742,0.891,2.414s1.398,1.031,2.32,1.078s1.742-0.242,2.461-0.867l1.406-1.313
		L22.687,18.88z M20.39,5.99c0.406,0,0.75,0.141,1.031,0.422L24,8.99v9.046c-0.125-0.124-0.25-0.233-0.375-0.327l-6.845-5.532
		l1.219-1.125c0.156-0.156,0.242-0.336,0.258-0.539s-0.047-0.383-0.188-0.539S17.757,9.74,17.554,9.74s-0.383,0.063-0.539,0.188
		l-3.75,3.469c-0.406,0.313-0.875,0.453-1.406,0.422s-0.953-0.227-1.266-0.586s-0.469-0.797-0.469-1.313s0.203-0.945,0.609-1.289
		l4.594-4.266c0.281-0.25,0.625-0.375,1.031-0.375H20.39z M25.5,8.99H30v12h-3c-0.406,0-0.758-0.148-1.055-0.445
		S25.5,19.896,25.5,19.489V8.99z M27.75,19.489c0.219,0,0.398-0.07,0.539-0.211s0.211-0.32,0.211-0.539s-0.07-0.398-0.211-0.539
		s-0.32-0.211-0.539-0.211s-0.398,0.07-0.539,0.211S27,18.521,27,18.739s0.07,0.398,0.211,0.539S27.531,19.489,27.75,19.489z"/>
</g>
</svg>
