<?xml version="1.0" encoding="utf-8"?>
<!-- Generator: Adobe Illustrator 16.0.0, SVG Export Plug-In . SVG Version: 6.00 Build 0)  -->
<!DOCTYPE svg PUBLIC "-//W3C//DTD SVG 1.1//EN" "http://www.w3.org/Graphics/SVG/1.1/DTD/svg11.dtd">
<svg version="1.1" id="圖層_1" xmlns="http://www.w3.org/2000/svg" xmlns:xlink="http://www.w3.org/1999/xlink" x="0px" y="0px"
	 width="30px" height="35px" viewBox="0 0 30 35" enable-background="new 0 0 30 35" xml:space="preserve">
<g>
	<path fill="#999999" d="M30,12.501v20.625C30,34.161,29.161,35,28.125,35H1.874C0.84,35,0,34.161,0,33.125V1.876
		C0,0.839,0.84,0,1.874,0H17.5v10.625c0,1.035,0.84,1.875,1.875,1.875H30z M22.5,15.625c0-0.351-0.273-0.625-0.625-0.625H8.126
		C7.773,15,7.5,15.274,7.5,15.625v1.25c0,0.351,0.273,0.625,0.626,0.625h13.749c0.352,0,0.625-0.274,0.625-0.625V15.625z
		 M22.5,20.625c0-0.351-0.273-0.625-0.625-0.625H8.126C7.773,20,7.5,20.274,7.5,20.625v1.25c0,0.352,0.273,0.625,0.626,0.625h13.749
		c0.352,0,0.625-0.273,0.625-0.625V20.625z M22.5,25.626c0-0.352-0.273-0.625-0.625-0.625H8.126C7.773,25,7.5,25.274,7.5,25.626
		v1.25c0,0.351,0.273,0.625,0.626,0.625h13.749c0.352,0,0.625-0.274,0.625-0.625V25.626z M29.218,10H20V0.782
		c0.273,0.176,0.508,0.352,0.703,0.548l7.969,7.967C28.868,9.493,29.043,9.727,29.218,10z"/>
</g>
</svg>
