<?xml version="1.0" encoding="utf-8"?>
<!-- Generator: Adobe Illustrator 16.0.0, SVG Export Plug-In . SVG Version: 6.00 Build 0)  -->
<!DOCTYPE svg PUBLIC "-//W3C//DTD SVG 1.1//EN" "http://www.w3.org/Graphics/SVG/1.1/DTD/svg11.dtd">
<svg version="1.1" id="圖層_1" xmlns="http://www.w3.org/2000/svg" xmlns:xlink="http://www.w3.org/1999/xlink" x="0px" y="0px"
	 width="30px" height="34.205px" viewBox="0 0 30 34.205" enable-background="new 0 0 30 34.205" xml:space="preserve">
<g>
	<path fill="#999999" d="M29.071,10.125c0-2.595-1.971-4.729-4.494-4.99c-0.711-1.91-2.545-3.277-4.705-3.277
		c-0.944,0-1.823,0.264-2.578,0.72C16.436,1.041,14.796,0,12.909,0c-2.498,0-4.565,1.831-4.947,4.22
		C7.756,4.196,7.55,4.18,7.339,4.18c-2.771,0-5.02,2.246-5.02,5.018c0,0.139,0.01,0.27,0.021,0.403C0.937,10.491,0,12.055,0,13.842
		c0,1.577,0.73,2.985,1.87,3.905c-0.006,0.089-0.014,0.179-0.014,0.271c0,2.771,2.246,5.021,5.021,5.021
		c0.831,0,1.612-0.206,2.3-0.563c0.958,0.688,2.328,1.546,2.99,1.375c0,0,0.246,3.821,0.193,4.789
		c-0.101,1.846-0.656,3.9-1.045,5.565h6.035c0,0-0.891-3.708-0.928-4.945c-0.041-1.238,0.387-3.518,0.387-3.518l2.092-2.166
		c0.806,0.552,1.779,0.864,2.83,0.864c2.594,0,4.729-1.974,4.991-4.501C28.634,19.232,30,17.394,30,15.233
		c0-1.275-0.479-2.434-1.261-3.321C28.95,11.357,29.071,10.757,29.071,10.125L29.071,10.125z M10.338,21.647
		c0.403-0.384,0.739-0.834,0.999-1.331l0.984,2.063C12.319,22.38,11.783,22.616,10.338,21.647L10.338,21.647z M14.021,22.921
		c-0.509,0.092-1.378-1.478-1.995-2.754c0.686,0.349,1.457,0.549,2.276,0.549c0.211,0,0.417-0.017,0.622-0.041
		C14.765,21.696,14.487,22.837,14.021,22.921L14.021,22.921z M16.188,23.926c-1.18,0.327-0.473-2.113-0.135-3.529
		c0.244-0.093,0.482-0.198,0.707-0.326c0.135,1.031,0.584,1.963,1.248,2.696C17.433,23.279,16.771,23.766,16.188,23.926
		L16.188,23.926z M16.188,23.926"/>
</g>
</svg>
