<?xml version="1.0" encoding="utf-8"?>
<!-- Generator: Adobe Illustrator 16.0.0, SVG Export Plug-In . SVG Version: 6.00 Build 0)  -->
<!DOCTYPE svg PUBLIC "-//W3C//DTD SVG 1.1//EN" "http://www.w3.org/Graphics/SVG/1.1/DTD/svg11.dtd">
<svg version="1.1" id="圖層_1" xmlns="http://www.w3.org/2000/svg" xmlns:xlink="http://www.w3.org/1999/xlink" x="0px" y="0px"
	 width="30px" height="30px" viewBox="0 0 30 30" enable-background="new 0 0 30 30" xml:space="preserve">
<g>
	<path fill="#999999" d="M27.692,30c-0.613,0-1.208-0.252-1.623-0.686l-6.184-6.166c-2.109,1.461-4.633,2.235-7.193,2.235
		C5.679,25.384,0,19.705,0,12.692C0,5.679,5.679,0,12.692,0c7.014,0,12.692,5.679,12.692,12.692c0,2.56-0.775,5.084-2.235,7.193
		l6.184,6.184C29.748,26.484,30,27.08,30,27.692C30,28.954,28.954,30,27.692,30z M12.692,4.615c-4.453,0-8.077,3.624-8.077,8.078
		c0,4.452,3.624,8.076,8.077,8.076c4.453,0,8.077-3.624,8.077-8.076C20.769,8.238,17.145,4.615,12.692,4.615z"/>
</g>
</svg>
