<?xml version="1.0" encoding="utf-8"?>
<!-- Generator: Adobe Illustrator 16.0.0, SVG Export Plug-In . SVG Version: 6.00 Build 0)  -->
<!DOCTYPE svg PUBLIC "-//W3C//DTD SVG 1.1//EN" "http://www.w3.org/Graphics/SVG/1.1/DTD/svg11.dtd">
<svg version="1.1" id="圖層_1" xmlns="http://www.w3.org/2000/svg" xmlns:xlink="http://www.w3.org/1999/xlink" x="0px" y="0px"
	 width="30px" height="32.472px" viewBox="0 0 30 32.472" enable-background="new 0 0 30 32.472" xml:space="preserve">
<g>
	<rect x="14.003" y="29.268" fill="#999999" width="0.704" height="3.205"/>
	<path fill="#999999" d="M14.503,0c2.996,0,5.424,2.37,5.424,5.294c0,2.923-2.429,5.294-5.424,5.294
		c-2.997,0-5.425-2.371-5.425-5.294C9.078,2.37,11.506,0,14.503,0z M2.65,31.852c-0.619,0.412-1.477,0.14-1.726-0.557l-0.86-2.407
		c-0.208-0.584,0.108-1.221,0.706-1.425l5.983-2.022l2.779,1.847L2.65,31.852z M13.745,25.613c-0.614,0.881-1.845,1.108-2.749,0.509
		l-7.311-4.86c-0.851-0.566-1.114-1.675-0.605-2.549c1.745-2.997,0.988-1.697,2.738-4.702c0.836-1.436,2.408-2.329,4.101-2.329
		c1.09,0,8.375,0,9.462,0c2.486,0,4.519,1.976,4.531,4.4l0.003,0.56l-3.95,1.345l-0.01-1.885c0.006-0.034,0.009-0.066,0.009-0.097
		c0-0.184-0.152-0.333-0.34-0.333c-0.189,0-0.341,0.149-0.341,0.333v2.213l-6.567,2.233l-3.331-2.214v-2.479
		c-0.112,0.108,0.021-0.093-1.963,3.313l5.803,3.858C14.127,23.529,14.362,24.73,13.745,25.613z M29.533,23.626
		c-0.418,0.984-1.576,1.453-2.585,1.044l-4.336-1.754c0.202-0.174,0.369-0.387,0.491-0.632c0.183-0.371,0.245-0.776,0.182-1.173
		l2.823-0.96l2.355,0.954C29.473,21.512,29.952,22.642,29.533,23.626z M29.418,17.792l-8.154,2.774
		c0.353,0.007,0.681,0.224,0.803,0.566c0.158,0.441-0.081,0.923-0.533,1.077l-5.655,1.923c-0.115-1.041-0.679-2.029-1.635-2.665
		l-0.303-0.2l12.043-4.098l-0.25-0.698c-0.157-0.44,0.082-0.922,0.532-1.077c0.453-0.153,0.947,0.081,1.105,0.52l0.249,0.699
		l1.228-0.417c0.452-0.155,0.945,0.078,1.104,0.52C30.109,17.157,29.87,17.639,29.418,17.792z"/>
	<path fill="#999999" d="M15.796,25.393c-0.105,0.424-0.287,0.834-0.553,1.216c-1.005,1.44-2.913,2.009-4.58,1.334
		c-0.15,0.099-1.219,0.81-1.37,0.91c-0.034,0.183-0.041-0.198-0.042,3.62h4.752v-3.205h0.704v3.205h4.749c0-6.735,0-8.339,0-8.339
		L15.796,25.393z"/>
	<path fill="#999999" d="M28.463,21.104l-2.355-0.954l-2.823,0.96c0.063,0.397,0.001,0.803-0.182,1.173
		c-0.122,0.245-0.289,0.458-0.491,0.632l4.336,1.754c1.01,0.409,2.167-0.06,2.585-1.044C29.952,22.642,29.473,21.512,28.463,21.104z
		"/>
	<path fill="#999999" d="M0.77,27.462c-0.598,0.204-0.914,0.841-0.706,1.425l0.86,2.407c0.249,0.697,1.106,0.969,1.726,0.557
		l6.883-4.564L6.753,25.44L0.77,27.462z"/>
	<path fill="#999999" d="M28.848,16.197l-1.228,0.417l-0.249-0.699c-0.158-0.439-0.652-0.673-1.105-0.52
		c-0.45,0.154-0.689,0.636-0.532,1.077l0.25,0.698l-12.043,4.098l0.303,0.2c0.957,0.636,1.52,1.624,1.635,2.665l5.655-1.923
		c0.452-0.154,0.691-0.636,0.533-1.077c-0.122-0.343-0.45-0.56-0.803-0.566l8.154-2.774c0.452-0.153,0.69-0.635,0.533-1.076
		C29.793,16.274,29.3,16.042,28.848,16.197z"/>
	<path fill="#999999" d="M13.225,22.929l-5.803-3.858c1.984-3.405,1.851-3.204,1.963-3.313v2.479l3.331,2.214l6.567-2.233v-2.213
		c0-0.184,0.152-0.333,0.341-0.333c0.188,0,0.34,0.149,0.34,0.333c0,0.031-0.003,0.063-0.009,0.097l0.01,1.885l3.95-1.345
		l-0.003-0.56c-0.012-2.424-2.044-4.4-4.531-4.4c-1.087,0-8.372,0-9.462,0c-1.693,0-3.265,0.893-4.101,2.329
		c-1.75,3.005-0.993,1.705-2.738,4.702c-0.509,0.874-0.245,1.983,0.605,2.549l7.311,4.86c0.904,0.6,2.135,0.372,2.749-0.509
		C14.362,24.73,14.127,23.529,13.225,22.929z"/>
	<ellipse fill="#999999" cx="14.503" cy="5.294" rx="5.424" ry="5.294"/>
</g>
</svg>
