<?xml version="1.0" encoding="utf-8"?>
<!-- Generator: Adobe Illustrator 16.0.0, SVG Export Plug-In . SVG Version: 6.00 Build 0)  -->
<!DOCTYPE svg PUBLIC "-//W3C//DTD SVG 1.1//EN" "http://www.w3.org/Graphics/SVG/1.1/DTD/svg11.dtd">
<svg version="1.1" id="圖層_1" xmlns="http://www.w3.org/2000/svg" xmlns:xlink="http://www.w3.org/1999/xlink" x="0px" y="0px"
	 width="30px" height="26px" viewBox="0 0 30 26" enable-background="new 0 0 30 26" xml:space="preserve">
<g>
	<path fill="#999999" d="M19.956,17c0-3-2.867-3.662-3.59-4.529l-0.086-0.547c0.912-0.491,1.555-1.703,1.555-3.053
		c0-1.796-1.133-3.279-2.53-3.279s-2.53,1.438-2.53,3.233c0,1.362,0.654,2.513,1.578,2.996l-0.075,0.61
		C13.618,13.34,10.652,14,10.652,17h4.686H19.956z"/>
	<path fill="#999999" d="M27.844,0H2.156C0.891,0,0,0.751,0,2.053v17.967C0,21.323,0.891,23,2.156,23h10.702L12.5,25H9.155
		c-0.256,0-0.463,0.238-0.463,0.502C8.692,25.761,8.899,26,9.155,26H20.85c0.252,0,0.457-0.239,0.457-0.498
		c0-0.264-0.205-0.502-0.457-0.502H17.5l-0.357-2h10.701C29.112,23,30,21.323,30,20.021V2.053C30,0.751,29.112,0,27.844,0z M22,18H9
		V4h13V18z"/>
</g>
</svg>
