<?xml version="1.0" encoding="utf-8"?>
<!-- Generator: Adobe Illustrator 16.0.0, SVG Export Plug-In . SVG Version: 6.00 Build 0)  -->
<!DOCTYPE svg PUBLIC "-//W3C//DTD SVG 1.1//EN" "http://www.w3.org/Graphics/SVG/1.1/DTD/svg11.dtd">
<svg version="1.1" id="圖層_1" xmlns="http://www.w3.org/2000/svg" xmlns:xlink="http://www.w3.org/1999/xlink" x="0px" y="0px"
	 width="30.004px" height="32px" viewBox="0 0 30.004 32" enable-background="new 0 0 30.004 32" xml:space="preserve">
<g>
	<path fill="#999999" d="M12.708,5.623c0.883,0.71,0.507,1.956,0.507,2.862v0.043L13.03,8.654l-0.19,0.179
		c0.94,2.421,3.264,4.139,6.017,4.139c3.583,0,6.475-2.905,6.475-6.485C25.332,2.904,22.422,0,18.84,0
		c-3.245,0-5.882,2.385-6.359,5.496C12.542,5.537,12.65,5.575,12.708,5.623z"/>
	<path fill="#999999" d="M28.371,18.894C26.917,15.93,24.686,14,19.179,14h-1.132c-2.065,0-3.674,0.299-4.953,0.776
		c-0.008,0-0.033,0.011-0.043,0.011l-6.521,0.897l5.684-7.293V8.379c1-0.745,0.68-1.833-0.065-2.433
		c-0.733-0.608-1.748-0.498-2.335,0.255L1.159,16.938c-0.077,0.1-0.132,0.21-0.175,0.333l-0.598,0.752
		c-0.425,0.513-0.507,1.234-0.208,1.834c0.278,0.6,0.881,0.978,1.545,0.988l10.117,0.123c0.198,1.032,0.268,2.274,0.268,2.274
		L12.376,32h12.476l0.277-8.67L25.962,32h4.042C29.492,27,28.793,19.759,28.371,18.894z M15.929,32h-2.834l9.427-16.989
		c0.932,0.188,1.709,0.542,2.375,0.896L15.929,32z"/>
</g>
</svg>
