<?xml version="1.0" encoding="utf-8"?>
<!-- Generator: Adobe Illustrator 16.0.0, SVG Export Plug-In . SVG Version: 6.00 Build 0)  -->
<!DOCTYPE svg PUBLIC "-//W3C//DTD SVG 1.1//EN" "http://www.w3.org/Graphics/SVG/1.1/DTD/svg11.dtd">
<svg version="1.1" id="圖層_1" xmlns="http://www.w3.org/2000/svg" xmlns:xlink="http://www.w3.org/1999/xlink" x="0px" y="0px"
	 width="30px" height="52.965px" viewBox="0 0 30 52.965" enable-background="new 0 0 30 52.965" xml:space="preserve">
<g>
	<g>
		<circle fill="#999999" cx="15.191" cy="14.504" r="1.676"/>
		<path fill="#999999" d="M11.762,16.324L13,15.05c0-0.002,0-0.002,0-0.002l-1.699-0.444c-0.104-0.026-0.143-0.172-0.04-0.198
			L13,13.961v-0.002l-1.238-1.273c-0.076-0.075,0.037-0.201,0.14-0.172l1.7,0.504C13.346,13.275,13,13.715,13,14.076v0.432h0.158
			c-0.045,0-0.07,0-0.07,0s0.025,0,0.07,0h0.003h-0.002c0.098,1,0.288,0.957,0.545,1.214l-1.803,0.639
			C11.799,16.39,11.686,16.397,11.762,16.324z"/>
		<path fill="#999999" d="M13.158,13.961l-1.777,0.445c-0.104,0.026-0.104,0.172,0,0.198l1.777,0.444
			c-0.045-0.173-0.07-0.354-0.07-0.544C13.088,14.316,13.113,14.135,13.158,13.961z"/>
		<path fill="#999999" d="M13.159,15.05l-1.318,1.274c-0.075,0.073-0.002,0.201,0.101,0.172l1.763-0.504
			C13.447,15.735,13.257,15.411,13.159,15.05z"/>
		<polygon fill="#999999" points="13.158,15.048 13.159,15.05 13.161,15.048 		"/>
		<path fill="#999999" d="M11.941,12.514c-0.103-0.029-0.176,0.097-0.101,0.172l1.318,1.273c0.098-0.361,0.288-0.684,0.545-0.94
			L11.941,12.514z"/>
		<polygon fill="#999999" points="13.159,13.959 13.158,13.961 13.161,13.961 		"/>
		<path fill="#999999" d="M15.734,12.472l-0.445-1.778c-0.024-0.103-0.171-0.103-0.197,0l-0.445,1.778
			c0.174-0.046,0.357-0.071,0.545-0.071S15.561,12.426,15.734,12.472z"/>
		<polygon fill="#999999" points="15.736,12.472 15.734,12.472 15.735,12.474 		"/>
		<path fill="#999999" d="M17.183,11.255c0.028-0.104-0.097-0.177-0.173-0.1l-1.273,1.316c0.361,0.097,0.686,0.288,0.941,0.544
			L17.183,11.255z"/>
		<polygon fill="#999999" points="14.646,12.472 14.646,12.472 14.646,12.474 		"/>
		<path fill="#999999" d="M13.704,13.017c0.257-0.257,0.58-0.447,0.941-0.544l-1.274-1.316c-0.073-0.077-0.2-0.004-0.171,0.1
			L13.704,13.017z"/>
		<polygon fill="#999999" points="15.734,16.538 15.736,16.536 15.735,16.536 		"/>
		<path fill="#999999" d="M13.2,17.755c-0.029,0.102,0.098,0.175,0.172,0.099l1.273-1.318c-0.36-0.095-0.684-0.287-0.941-0.543
			L13.2,17.755z"/>
		<path fill="#999999" d="M16.678,15.993c-0.256,0.257-0.58,0.448-0.941,0.543l1.273,1.318c0.076,0.076,0.202,0.003,0.173-0.099
			L16.678,15.993z"/>
		<path fill="#999999" d="M14.646,16.538l0.445,1.777c0.026,0.104,0.173,0.104,0.198,0l0.444-1.777
			c-0.174,0.047-0.355,0.07-0.543,0.07S14.82,16.584,14.646,16.538z"/>
		<polygon fill="#999999" points="14.646,16.536 14.646,16.538 14.646,16.536 		"/>
		<path fill="#999999" d="M18.441,12.514l-1.764,0.504c0.258,0.256,0.449,0.58,0.545,0.94l1.318-1.273
			C18.617,12.611,18.543,12.485,18.441,12.514z"/>
		<polygon fill="#999999" points="17.221,13.961 17.223,13.961 17.223,13.959 		"/>
		<path fill="#999999" d="M19,14.406l-1.777-0.445c0.047,0.174,0.07,0.355,0.07,0.543c0,0.189-0.023,0.371-0.07,0.544L19,14.604
			C19.105,14.578,19.105,14.432,19,14.406z"/>
		<polygon fill="#999999" points="17.223,15.05 17.223,15.048 17.221,15.048 		"/>
		<path fill="#999999" d="M18.441,16.496c0.102,0.029,0.176-0.099,0.1-0.172l-1.318-1.274c-0.096,0.361-0.287,0.685-0.545,0.941
			L18.441,16.496z"/>
		<circle fill="#999999" cx="15.191" cy="14.504" r="1.676"/>
	</g>
	<path fill="#999999" d="M25.338,34.917l0.359,2.23c0.009,0.189-0.526,0.361-0.713,0.361c-0.008,0,0.607,0,0.601,0
		c-0.18,0-0.948-0.135-0.96-0.316l-0.153-2.668c-0.042-0.021-2.495-32.091-2.495-32.091L15.273,0L8.57,2.448
		c0,0-2.452,32.091-2.494,32.112l-0.154,2.63c-0.009,0.182-0.78,0.317-0.959,0.317c-0.007,0,0.607,0,0.601,0
		c-0.187,0-0.951-0.172-0.94-0.361l0.313-2.27C1.771,36.483,0,37.978,0,38.054c0,1.892,0,5.681,0,7.574
		c0,0.161,10.65,6.358,15,7.338c4.35-0.98,15-7.177,15-7.338c0-1.893,0-5.682,0-7.574C30,37.978,28.502,36.522,25.338,34.917z
		 M15.233,19.303c-2.765,0-5.007-2.24-5.007-5.005s2.242-5.005,5.007-5.005c2.763,0,5.005,2.241,5.005,5.005
		S17.996,19.303,15.233,19.303z"/>
</g>
</svg>
