<?xml version="1.0" encoding="utf-8"?>
<!-- Generator: Adobe Illustrator 16.0.0, SVG Export Plug-In . SVG Version: 6.00 Build 0)  -->
<!DOCTYPE svg PUBLIC "-//W3C//DTD SVG 1.1//EN" "http://www.w3.org/Graphics/SVG/1.1/DTD/svg11.dtd">
<svg version="1.1" id="圖層_1" xmlns="http://www.w3.org/2000/svg" xmlns:xlink="http://www.w3.org/1999/xlink" x="0px" y="0px"
	 width="30px" height="24.545px" viewBox="0 0 30 24.545" enable-background="new 0 0 30 24.545" xml:space="preserve">
<g>
	<g>
		<g>
			<path fill="#999999" d="M21.818,5.454H10.515V1.363C10.515,0.611,9.904,0,9.151,0H5.515C4.762,0,4.151,0.611,4.151,1.363
				c0,0.753,0.61,1.363,1.364,1.363h2.272v2.728h-0.97C3.059,5.454,0,8.514,0,12.272v10.909c0,0.753,0.611,1.364,1.363,1.364h27.273
				c0.754,0,1.364-0.611,1.364-1.364v-9.546C30,9.124,26.331,5.454,21.818,5.454z M13.638,13.636v8.182H2.728v-9.545
				c0-2.256,1.834-4.091,4.09-4.091h0.97v4.091c0,0.753,0.61,1.363,1.363,1.363c0.753,0,1.364-0.61,1.364-1.363V8.182h5.211
				C14.428,9.631,13.638,11.542,13.638,13.636z M27.273,21.819h-10.91v-8.183c0-3.007,2.447-5.454,5.455-5.454
				c3.008,0,5.455,2.447,5.455,5.454V21.819z"/>
		</g>
	</g>
	<g>
		<g>
			<path fill="#999999" d="M23.182,16.363h-2.727c-0.753,0-1.363,0.61-1.363,1.364s0.61,1.364,1.363,1.364h2.727
				c0.754,0,1.364-0.61,1.364-1.364S23.936,16.363,23.182,16.363z"/>
		</g>
	</g>
</g>
</svg>
